<svg width="60" height="60" viewBox="0 0 60 60" fill="none" xmlns="http://www.w3.org/2000/svg">
<rect x="25.875" y="20.7578" width="9" height="8.24998" rx="0.562499" fill="#373636"/>
<rect x="36" y="20.7578" width="9" height="8.24998" rx="0.562499" fill="#373636"/>
<rect x="47.25" y="17" width="2.62499" height="22.125" rx="0.562499" transform="rotate(90 47.25 17)" fill="#373636"/>
<path d="M46.125 18.1309C46.125 17.6005 46.125 17.3354 46.2898 17.1706C46.4545 17.0059 46.7197 17.0059 47.25 17.0059H47.625C48.1553 17.0059 48.4205 17.0059 48.5852 17.1706C48.75 17.3354 48.75 17.6005 48.75 18.1309V27.8808C48.75 28.4112 48.75 28.6763 48.5852 28.8411C48.4205 29.0058 48.1553 29.0058 47.625 29.0058H47.25C46.7197 29.0058 46.4545 29.0058 46.2898 28.8411C46.125 28.6763 46.125 28.4112 46.125 27.8808V18.1309Z" fill="#373636"/>
<path d="M12 18.125C12 17.5947 12 17.3295 12.1648 17.1648C12.3295 17 12.5947 17 13.125 17H13.5C14.0303 17 14.2955 17 14.4602 17.1648C14.625 17.3295 14.625 17.5947 14.625 18.125V40.2499C14.625 40.7803 14.625 41.0454 14.4602 41.2102C14.2955 41.3749 14.0303 41.3749 13.5 41.3749H13.125C12.5947 41.3749 12.3295 41.3749 12.1648 41.2102C12 41.0454 12 40.7803 12 40.2499V18.125Z" fill="#373636"/>
<path d="M13.125 42.125C12.5947 42.125 12.3295 42.125 12.1648 41.9602C12 41.7955 12 41.5303 12 41L12 40.625C12 40.0947 12 39.8295 12.1648 39.6648C12.3295 39.5 12.5947 39.5 13.125 39.5L23.625 39.5C24.1553 39.5 24.4205 39.5 24.5852 39.6648C24.75 39.8295 24.75 40.0947 24.75 40.625L24.75 41C24.75 41.5303 24.75 41.7955 24.5852 41.9602C24.4205 42.125 24.1553 42.125 23.625 42.125L13.125 42.125Z" fill="#373636"/>
<rect x="47.625" y="17" width="2.62499" height="34.875" rx="0.562499" transform="rotate(90 47.625 17)" fill="#373636"/>
<rect x="15.75" y="20.7578" width="9" height="8.24998" rx="0.562499" fill="#373636"/>
<rect x="15.75" y="30.1328" width="9" height="8.24998" rx="0.562499" fill="#373636"/>
</svg>
