<svg width="60" height="60" viewBox="0 0 60 60" fill="none" xmlns="http://www.w3.org/2000/svg">
<rect x="36" y="22.75" width="9" height="8.24998" rx="0.562499" fill="#373636"/>
<rect x="46.875" y="19" width="2.62499" height="11.625" rx="0.562499" transform="rotate(90 46.875 19)" fill="#373636"/>
<path d="M46.125 20.125C46.125 19.5947 46.125 19.3295 46.2898 19.1648C46.4545 19 46.7197 19 47.25 19H47.625C48.1553 19 48.4205 19 48.5852 19.1648C48.75 19.3295 48.75 19.5947 48.75 20.125V29.875C48.75 30.4053 48.75 30.6705 48.5852 30.8352C48.4205 31 48.1553 31 47.625 31H47.25C46.7197 31 46.4545 31 46.2898 30.8352C46.125 30.6705 46.125 30.4053 46.125 29.875V20.125Z" fill="#373636"/>
<path d="M12 20.125C12 19.5947 12 19.3295 12.1648 19.1648C12.3295 19 12.5947 19 13.125 19H13.5C14.0303 19 14.2955 19 14.4602 19.1648C14.625 19.3295 14.625 19.5947 14.625 20.125V29.875C14.625 30.4053 14.625 30.6705 14.4602 30.8352C14.2955 31 14.0303 31 13.5 31H13.125C12.5947 31 12.3295 31 12.1648 30.8352C12 30.6705 12 30.4053 12 29.875V20.125Z" fill="#373636"/>
<rect x="36" y="19" width="2.62499" height="23.625" rx="0.562499" transform="rotate(90 36 19)" fill="#373636"/>
<rect x="25.875" y="22.75" width="9" height="8.24998" rx="0.562499" fill="#373636"/>
<rect x="15.75" y="22.75" width="9" height="8.24998" rx="0.562499" fill="#373636"/>
<rect x="15.75" y="32.125" width="9" height="8.24998" rx="0.562499" fill="#373636"/>
</svg>
