<svg width="60" height="60" viewBox="0 0 60 60" fill="none" xmlns="http://www.w3.org/2000/svg">
<rect x="25.875" y="20.8203" width="9" height="8.24998" rx="0.562499" fill="#373636"/>
<rect x="48.375" y="17.0469" width="2.62499" height="23.25" rx="0.562499" transform="rotate(90 48.375 17.0469)" fill="#373636"/>
<path d="M46.125 18.125C46.125 17.5947 46.125 17.3295 46.2898 17.1648C46.4545 17 46.7197 17 47.25 17H47.625C48.1553 17 48.4205 17 48.5852 17.1648C48.75 17.3295 48.75 17.5947 48.75 18.125V40.9999C48.75 41.5303 48.75 41.7954 48.5852 41.9602C48.4205 42.1249 48.1553 42.1249 47.625 42.1249H47.25C46.7197 42.1249 46.4545 42.1249 46.2898 41.9602C46.125 41.7954 46.125 41.5303 46.125 40.9999V18.125Z" fill="#373636"/>
<path d="M12 18.125C12 17.5947 12 17.3295 12.1648 17.1648C12.3295 17 12.5947 17 13.125 17H13.5C14.0303 17 14.2955 17 14.4602 17.1648C14.625 17.3295 14.625 17.5947 14.625 18.125V39.4999C14.625 40.0303 14.625 40.2954 14.4602 40.4602C14.2955 40.6249 14.0303 40.6249 13.5 40.6249H13.125C12.5947 40.6249 12.3295 40.6249 12.1648 40.4602C12 40.2954 12 40.0303 12 39.4999V18.125Z" fill="#373636"/>
<path d="M13.125 42.1953C12.5947 42.1953 12.3295 42.1953 12.1648 42.0306C12 41.8658 12 41.6006 12 41.0703L12 40.6953C12 40.165 12 39.8998 12.1648 39.7351C12.3295 39.5703 12.5947 39.5703 13.125 39.5703L23.625 39.5703C24.1553 39.5703 24.4205 39.5703 24.5852 39.7351C24.75 39.8998 24.75 40.165 24.75 40.6953L24.75 41.0703C24.75 41.6006 24.75 41.8658 24.5852 42.0306C24.4205 42.1953 24.1553 42.1953 23.625 42.1953L13.125 42.1953Z" fill="#373636"/>
<path d="M47.625 39.5703C48.1553 39.5703 48.4205 39.5703 48.5852 39.7351C48.75 39.8998 48.75 40.165 48.75 40.6953L48.75 41.0703C48.75 41.6006 48.75 41.8658 48.5852 42.0306C48.4205 42.1953 48.1553 42.1953 47.625 42.1953L37.125 42.1953C36.5947 42.1953 36.3295 42.1953 36.1648 42.0306C36 41.8658 36 41.6006 36 41.0703L36 40.6953C36 40.165 36 39.8998 36.1648 39.7351C36.3295 39.5703 36.5947 39.5703 37.125 39.5703L47.625 39.5703Z" fill="#373636"/>
<rect x="48" y="17" width="2.62499" height="34.875" rx="0.562499" transform="rotate(90 48 17)" fill="#373636"/>
<rect x="15.75" y="20.8203" width="9" height="8.24998" rx="0.562499" fill="#373636"/>
<rect x="36" y="20.8203" width="9" height="8.24998" rx="0.562499" fill="#373636"/>
<rect x="15.75" y="30.1953" width="9" height="8.24998" rx="0.562499" fill="#373636"/>
<rect x="36" y="30.1953" width="9" height="8.24998" rx="0.562499" fill="#373636"/>
</svg>
