<svg width="60" height="60" viewBox="0 0 60 60" fill="none" xmlns="http://www.w3.org/2000/svg">
<rect x="40.6719" y="27.75" width="9" height="8.24998" rx="0.562499" fill="#373636"/>
<rect x="51.5469" y="24" width="2.62499" height="11.625" rx="0.562499" transform="rotate(90 51.5469 24)" fill="#373636"/>
<path d="M50.7969 25.125C50.7969 24.5947 50.7969 24.3295 50.9616 24.1648C51.1264 24 51.3915 24 51.9219 24H52.2969C52.8272 24 53.0924 24 53.2571 24.1648C53.4219 24.3295 53.4219 24.5947 53.4219 25.125V34.875C53.4219 35.4053 53.4219 35.6705 53.2571 35.8352C53.0924 36 52.8272 36 52.2969 36H51.9219C51.3915 36 51.1264 36 50.9616 35.8352C50.7969 35.6705 50.7969 35.4053 50.7969 34.875V25.125Z" fill="#373636"/>
<path d="M6.54688 25.125C6.54688 24.5947 6.54688 24.3295 6.71163 24.1648C6.87638 24 7.14154 24 7.67187 24H8.04688C8.57721 24 8.84237 24 9.00712 24.1648C9.17188 24.3295 9.17188 24.5947 9.17188 25.125V34.875C9.17188 35.4053 9.17188 35.6705 9.00712 35.8352C8.84237 36 8.57721 36 8.04688 36H7.67187C7.14154 36 6.87638 36 6.71163 35.8352C6.54688 35.6705 6.54688 35.4053 6.54688 34.875V25.125Z" fill="#373636"/>
<rect x="52.2969" y="24" width="2.62499" height="45" rx="0.562499" transform="rotate(90 52.2969 24)" fill="#373636"/>
<rect x="30.5469" y="27.75" width="9" height="8.24998" rx="0.562499" fill="#373636"/>
<rect x="20.4219" y="27.75" width="9" height="8.24998" rx="0.562499" fill="#373636"/>
<rect x="10.2969" y="27.75" width="9" height="8.24998" rx="0.562499" fill="#373636"/>
</svg>
