<svg width="60" height="60" viewBox="0 0 60 60" fill="none" xmlns="http://www.w3.org/2000/svg">
<rect x="36" y="27.75" width="9" height="8.24998" rx="0.562499" fill="#373636"/>
<rect x="46.875" y="24" width="2.62499" height="11.625" rx="0.562499" transform="rotate(90 46.875 24)" fill="#373636"/>
<path d="M46.125 25.125C46.125 24.5947 46.125 24.3295 46.2898 24.1648C46.4545 24 46.7197 24 47.25 24H47.625C48.1553 24 48.4205 24 48.5852 24.1648C48.75 24.3295 48.75 24.5947 48.75 25.125V34.875C48.75 35.4053 48.75 35.6705 48.5852 35.8352C48.4205 36 48.1553 36 47.625 36H47.25C46.7197 36 46.4545 36 46.2898 35.8352C46.125 35.6705 46.125 35.4053 46.125 34.875V25.125Z" fill="#373636"/>
<path d="M12 25.125C12 24.5947 12 24.3295 12.1648 24.1648C12.3295 24 12.5947 24 13.125 24H13.5C14.0303 24 14.2955 24 14.4602 24.1648C14.625 24.3295 14.625 24.5947 14.625 25.125V34.875C14.625 35.4053 14.625 35.6705 14.4602 35.8352C14.2955 36 14.0303 36 13.5 36H13.125C12.5947 36 12.3295 36 12.1648 35.8352C12 35.6705 12 35.4053 12 34.875V25.125Z" fill="#373636"/>
<rect x="48" y="24" width="2.62499" height="35.625" rx="0.562499" transform="rotate(90 48 24)" fill="#373636"/>
<rect x="25.875" y="27.75" width="9" height="8.24998" rx="0.562499" fill="#373636"/>
<rect x="15.75" y="27.75" width="9" height="8.24998" rx="0.562499" fill="#373636"/>
</svg>
