<svg width="60" height="60" viewBox="0 0 60 60" fill="none" xmlns="http://www.w3.org/2000/svg">
<rect x="42.875" y="24" width="2.62499" height="12.75" transform="rotate(90 42.875 24)" fill="#373636"/>
<path d="M41 25.125C41 24.5947 41 24.3295 41.1648 24.1648C41.3295 24 41.5947 24 42.125 24H42.5C43.0303 24 43.2955 24 43.4602 24.1648C43.625 24.3295 43.625 24.5947 43.625 25.125V34.875C43.625 35.4053 43.625 35.6705 43.4602 35.8352C43.2955 36 43.0303 36 42.5 36H42.125C41.5947 36 41.3295 36 41.1648 35.8352C41 35.6705 41 35.4053 41 34.875V25.125Z" fill="#373636"/>
<path d="M17 25.125C17 24.5947 17 24.3295 17.1648 24.1648C17.3295 24 17.5947 24 18.125 24H18.5C19.0303 24 19.2955 24 19.4602 24.1648C19.625 24.3295 19.625 24.5947 19.625 25.125V34.875C19.625 35.4053 19.625 35.6705 19.4602 35.8352C19.2955 36 19.0303 36 18.5 36H18.125C17.5947 36 17.3295 36 17.1648 35.8352C17 35.6705 17 35.4053 17 34.875V25.125Z" fill="#373636"/>
<rect x="30.875" y="24" width="2.62499" height="12.375" transform="rotate(90 30.875 24)" fill="#373636"/>
<rect x="30.875" y="27.75" width="9" height="8.24998" rx="0.5625" fill="#373636"/>
<rect x="20.75" y="27.75" width="9" height="8.24998" rx="0.5625" fill="#373636"/>
</svg>
